<?xml version="1.0" encoding="UTF-8"?>
<svg id="_Слой_2" data-name="Слой 2" xmlns="http://www.w3.org/2000/svg" viewBox="0 0 1200 182.64">
  <defs>
    <style>
      .cls-1 {
        fill: #1d1d1b;
      }

      .cls-1, .cls-2 {
        fill-rule: evenodd;
      }

      .cls-2 {
        fill: #e2000f;
      }
    </style>
  </defs>
  <g id="_Слой_1-2" data-name="Слой 1">
    <g>
      <path class="cls-1" d="M54.79,46.4h85.64c8.72,0,15.1,1.15,19.13,3.46,4.03,2.3,6.05,7.4,6.05,15.3v5.92c0,6.42-1.52,11.15-4.57,14.19s-8.27,4.57-15.67,4.57H54.79v-43.44h0ZM0,180.66h54.79v-46.4h86.14c8.56,0,14.44,1.81,17.65,5.43,3.21,3.62,4.81,10.12,4.81,19.5v21.47h54.79v-30.36c0-7.4-.78-13.45-2.34-18.14-1.56-4.69-3.7-8.51-6.42-11.48-2.71-2.96-5.88-5.14-9.5-6.54-3.62-1.4-7.49-2.51-11.6-3.33v-.49c6.25-1.48,11.39-3.5,15.42-6.05,4.03-2.55,7.16-5.64,9.38-9.26,2.22-3.62,3.74-7.82,4.57-12.59.82-4.77,1.23-10.12,1.23-16.04v-11.35c0-8.06-.82-15.34-2.47-21.84-1.65-6.5-4.48-12.05-8.51-16.66-4.03-4.61-9.5-8.19-16.41-10.74-6.91-2.55-15.63-3.82-26.16-3.82H0v178.69h0ZM266.19,116.99c0,22.38,5.88,38.91,17.65,49.61,11.76,10.7,30.32,16.04,55.65,16.04h78.49c25.34,0,43.89-5.35,55.65-16.04,11.76-10.69,17.65-27.23,17.65-49.61V1.97h-54.79v103.16c0,11.35-2.3,19.46-6.91,24.31-4.61,4.85-12.5,7.28-23.69,7.28h-54.3c-11.19,0-19.09-2.43-23.69-7.28-4.61-4.85-6.91-12.96-6.91-24.31V1.97h-54.79v115.01h0ZM531.26,180.66h54.79V52.24c-6.62,8.16-16.72,13.38-28.05,13.38-10.6,0-20.14-4.57-26.74-11.85v126.9h0ZM612.34,117.97c0,13.16,1.77,23.9,5.31,32.21,3.54,8.31,8.72,14.89,15.55,19.74,6.83,4.85,15.1,8.19,24.8,10,9.71,1.81,20.73,2.71,33.07,2.71h80.18c13.82,0,25.01-1.4,33.57-4.2,8.55-2.8,15.22-6.62,19.99-11.48,4.77-4.85,8.02-10.53,9.75-17.03,1.73-6.5,2.59-13.53,2.59-21.1v-16.78h-54.79c0,5.59-.53,10-1.6,13.2-1.07,3.21-2.84,5.68-5.31,7.4-2.47,1.73-5.76,2.84-9.87,3.33-4.11.49-9.22.74-15.3.74h-50.31c-6.42,0-11.68-.66-15.8-1.97-4.11-1.32-7.32-3.37-9.63-6.17-2.3-2.8-3.87-6.5-4.69-11.11-.82-4.61-1.23-10.12-1.23-16.54v-19.25c0-5.59.45-10.57,1.36-14.93.9-4.36,2.59-8.1,5.06-11.23,2.47-3.13,5.92-5.51,10.37-7.16,4.44-1.64,10.28-2.47,17.52-2.47h51.55c8.23,0,14.56,1.15,19,3.46,4.44,2.3,6.66,6.66,6.66,13.08v4.94h54.79c.16-12.67-.66-23.28-2.47-31.84-1.81-8.56-5.76-15.47-11.85-20.73-6.09-5.26-14.97-9.05-26.65-11.35-11.68-2.3-27.23-3.46-46.65-3.46h-56.24c-12.34,0-23.37.91-33.07,2.71-9.71,1.81-17.97,5.14-24.8,10-6.83,4.85-12.01,11.48-15.55,19.87-3.54,8.39-5.31,19.09-5.31,32.08v53.31h0ZM871.28,180.66h54.79v-67.62h121.09v67.62h54.79V1.97h-54.79v63.68h-121.09V1.97h-54.79v178.69Z"/>
      <path class="cls-2" d="M558.01,57.54c15.43,0,28.02-12.59,28.02-28.02s-12.59-28.02-28.02-28.02-28.02,12.59-28.02,28.02,12.59,28.02,28.02,28.02Z"/>
      <path class="cls-1" d="M1145.21,181h54.79V52.58c-6.62,8.16-16.72,13.38-28.05,13.38-10.6,0-20.14-4.57-26.74-11.85v126.9Z"/>
      <path class="cls-2" d="M1171.95,57.88c15.43,0,28.02-12.59,28.02-28.02s-12.59-28.02-28.02-28.02-28.02,12.59-28.02,28.02,12.59,28.02,28.02,28.02Z"/>
    </g>
  </g>
</svg>