<?xml version="1.0" encoding="UTF-8"?>
<svg id="_Слой_2" data-name="Слой 2" xmlns="http://www.w3.org/2000/svg" viewBox="0 0 1200 182.54">
  <defs>
    <style>
      .cls-1 {
        fill: #e2000f;
      }

      .cls-1, .cls-2 {
        fill-rule: evenodd;
      }

      .cls-2 {
        fill: #fefefe;
      }
    </style>
  </defs>
  <g id="_Слой_1-2" data-name="Слой 1">
    <g>
      <path class="cls-1" d="M558.37,56.02c15.43,0,28.01-12.58,28.01-28.01s-12.58-28.01-28.01-28.01-28.01,12.58-28.01,28.01,12.58,28.01,28.01,28.01Z"/>
      <path class="cls-1" d="M1171.99,56.02c15.43,0,28.01-12.58,28.01-28.01s-12.58-28.01-28.01-28.01-28.01,12.58-28.01,28.01,12.58,28.01,28.01,28.01Z"/>
      <g>
        <path class="cls-2" d="M54.76,46.38h85.6c8.72,0,15.09,1.15,19.12,3.45,4.03,2.3,6.04,7.4,6.04,15.29v5.92c0,6.41-1.52,11.14-4.56,14.18-3.04,3.04-8.26,4.56-15.66,4.56H54.76v-43.42h0ZM0,180.57h54.76v-46.38h86.09c8.55,0,14.43,1.81,17.64,5.43,3.21,3.62,4.81,10.11,4.81,19.49v21.46h54.76v-30.34c0-7.4-.78-13.44-2.34-18.13-1.56-4.69-3.7-8.51-6.41-11.47-2.71-2.96-5.88-5.14-9.5-6.54-3.62-1.4-7.48-2.51-11.59-3.33v-.49c6.25-1.48,11.39-3.49,15.42-6.04,4.03-2.55,7.15-5.63,9.37-9.25,2.22-3.62,3.74-7.81,4.56-12.58.82-4.77,1.23-10.11,1.23-16.03v-11.35c0-8.06-.82-15.34-2.47-21.83-1.64-6.5-4.48-12.05-8.51-16.65-4.03-4.6-9.5-8.18-16.4-10.73-6.91-2.55-15.62-3.82-26.15-3.82H0v178.59h0ZM266.05,116.93c0,22.37,5.88,38.89,17.64,49.58,11.76,10.69,30.3,16.03,55.62,16.03h78.44c25.33,0,43.87-5.34,55.63-16.03,11.76-10.69,17.64-27.22,17.64-49.58V1.97h-54.76v103.11c0,11.35-2.3,19.45-6.91,24.3-4.6,4.85-12.5,7.28-23.68,7.28h-54.27c-11.18,0-19.08-2.43-23.68-7.28-4.6-4.85-6.91-12.95-6.91-24.3V1.97h-54.76v114.95h0ZM530.99,180.57h54.76V52.21c-6.62,8.16-16.71,13.37-28.03,13.37-10.6,0-20.13-4.57-26.73-11.85v126.84h0ZM612.02,117.91c0,13.16,1.77,23.89,5.3,32.19,3.53,8.3,8.72,14.88,15.54,19.73,6.83,4.85,15.09,8.18,24.79,9.99,9.7,1.81,20.72,2.71,33.06,2.71h80.13c13.82,0,25-1.4,33.55-4.19,8.55-2.8,15.21-6.62,19.98-11.47,4.77-4.85,8.02-10.52,9.74-17.02,1.73-6.5,2.59-13.53,2.59-21.09v-16.77h-54.76c0,5.59-.53,9.99-1.6,13.2-1.07,3.2-2.84,5.67-5.3,7.4-2.47,1.73-5.76,2.84-9.87,3.33-4.11.49-9.21.74-15.29.74h-50.29c-6.41,0-11.68-.66-15.79-1.97-4.11-1.32-7.32-3.37-9.62-6.17-2.3-2.8-3.86-6.5-4.69-11.1-.82-4.6-1.23-10.11-1.23-16.53v-19.24c0-5.59.45-10.57,1.36-14.92.9-4.36,2.59-8.1,5.06-11.22,2.47-3.12,5.92-5.51,10.36-7.15,4.44-1.64,10.28-2.47,17.51-2.47h51.52c8.22,0,14.55,1.15,18.99,3.45,4.44,2.3,6.66,6.66,6.66,13.07v4.93h54.76c.16-12.66-.66-23.27-2.47-31.82-1.81-8.55-5.76-15.46-11.84-20.72-6.08-5.26-14.97-9.05-26.64-11.35-11.68-2.3-27.22-3.45-46.62-3.45h-56.21c-12.33,0-23.35.91-33.06,2.71-9.7,1.81-17.97,5.14-24.79,9.99-6.82,4.85-12.01,11.47-15.54,19.86-3.54,8.39-5.3,19.08-5.3,32.07v53.28h0ZM870.83,180.57h54.76v-67.59h121.03v67.59h54.76V1.97h-54.76v63.64h-121.03V1.97h-54.76v178.59Z"/>
        <path class="cls-2" d="M1144.61,180.91h54.76V52.55c-6.62,8.16-16.71,13.37-28.03,13.37-10.6,0-20.13-4.57-26.73-11.85v126.84Z"/>
      </g>
    </g>
  </g>
</svg>